<svg xmlns="http://www.w3.org/2000/svg"  viewBox="0 0 761 563">
<path d="M 487 215 L 487 217 L 488 218 L 488 219 L 489 220 L 489 222 L 490 223 L 490 225 L 491 226 L 491 228 L 492 229 L 492 231 L 493 232 L 493 233 L 494 234 L 494 236 L 495 237 L 495 239 L 496 240 L 496 242 L 497 243 L 497 245 L 498 246 L 498 248 L 499 249 L 499 250 L 500 251 L 500 253 L 501 254 L 501 256 L 502 257 L 502 259 L 503 260 L 503 262 L 504 263 L 504 264 L 505 265 L 505 267 L 506 268 L 506 270 L 507 271 L 507 273 L 508 274 L 508 276 L 509 277 L 509 279 L 510 280 L 510 281 L 511 282 L 511 284 L 512 285 L 512 287 L 513 288 L 513 290 L 514 291 L 514 293 L 515 294 L 515 296 L 516 297 L 516 298 L 517 299 L 517 301 L 518 302 L 518 304 L 519 305 L 519 307 L 520 308 L 520 310 L 521 311 L 521 312 L 522 313 L 522 315 L 523 316 L 523 318 L 524 319 L 524 320 L 525 321 L 525 323 L 526 324 L 526 326 L 527 327 L 527 328 L 528 329 L 528 331 L 529 332 L 529 333 L 530 334 L 530 336 L 531 337 L 531 339 L 532 340 L 532 341 L 533 342 L 533 344 L 534 345 L 534 346 L 535 347 L 535 349 L 536 350 L 536 352 L 537 353 L 537 354 L 538 355 L 538 357 L 539 358 L 539 359 L 540 360 L 540 362 L 541 363 L 541 364 L 542 365 L 542 367 L 543 368 L 543 370 L 544 371 L 544 372 L 545 373 L 545 375 L 546 376 L 546 377 L 547 378 L 547 380 L 548 381 L 548 382 L 579 382 L 579 380 L 578 379 L 578 377 L 577 376 L 577 374 L 576 373 L 576 372 L 575 371 L 575 369 L 574 368 L 574 366 L 573 365 L 573 363 L 572 362 L 572 361 L 571 360 L 571 358 L 570 357 L 570 355 L 569 354 L 569 352 L 568 351 L 568 350 L 567 349 L 567 347 L 566 346 L 566 344 L 565 343 L 565 342 L 564 341 L 564 339 L 563 338 L 563 336 L 562 335 L 562 333 L 561 332 L 561 331 L 560 330 L 560 328 L 559 327 L 559 325 L 558 324 L 558 322 L 557 321 L 557 320 L 556 319 L 556 317 L 555 316 L 555 314 L 554 313 L 554 311 L 553 310 L 553 309 L 552 308 L 552 306 L 551 305 L 551 303 L 550 302 L 550 300 L 549 299 L 549 298 L 548 297 L 548 295 L 547 294 L 547 292 L 546 291 L 546 289 L 545 288 L 545 287 L 544 286 L 544 284 L 543 283 L 543 281 L 542 280 L 542 278 L 541 277 L 541 276 L 540 275 L 540 273 L 539 272 L 539 270 L 538 269 L 538 268 L 537 267 L 537 265 L 536 264 L 536 262 L 535 261 L 535 259 L 534 258 L 534 257 L 533 256 L 533 254 L 532 253 L 532 251 L 531 250 L 531 248 L 530 247 L 530 246 L 529 245 L 529 243 L 528 242 L 528 240 L 527 239 L 527 237 L 526 236 L 526 235 L 525 234 L 525 232 L 524 231 L 524 229 L 523 228 L 523 226 L 522 225 L 522 224 L 521 223 L 521 221 L 520 220 L 520 218 L 519 217 L 519 215 Z" fill="#111111"/>
<path d="M 306 215 L 306 382 L 335 382 L 335 215 Z" fill="#111111"/>
<path d="M 470 256 L 470 257 L 469 258 L 469 260 L 468 261 L 468 262 L 467 263 L 467 264 L 466 265 L 466 267 L 465 268 L 465 269 L 464 270 L 464 272 L 463 273 L 463 274 L 462 275 L 462 277 L 461 278 L 461 279 L 460 280 L 460 282 L 459 283 L 459 284 L 458 285 L 458 287 L 457 288 L 457 289 L 456 290 L 456 292 L 455 293 L 455 294 L 454 295 L 454 297 L 453 298 L 453 299 L 452 300 L 452 302 L 451 303 L 451 304 L 450 305 L 450 306 L 449 307 L 449 309 L 448 310 L 448 311 L 447 312 L 447 314 L 446 315 L 446 316 L 445 317 L 445 319 L 444 320 L 444 321 L 443 322 L 443 324 L 442 325 L 442 326 L 441 327 L 441 329 L 440 330 L 440 331 L 439 332 L 439 334 L 438 335 L 438 336 L 437 337 L 437 339 L 436 340 L 436 341 L 435 342 L 435 343 L 434 344 L 434 346 L 433 347 L 433 348 L 432 349 L 432 351 L 431 352 L 431 353 L 430 354 L 430 356 L 429 357 L 429 358 L 428 359 L 428 361 L 427 362 L 427 363 L 426 364 L 426 366 L 425 367 L 425 368 L 424 369 L 424 371 L 423 372 L 423 373 L 422 374 L 422 376 L 421 377 L 421 378 L 420 379 L 420 382 L 450 382 L 450 380 L 451 379 L 451 378 L 452 377 L 452 375 L 453 374 L 453 373 L 454 372 L 454 371 L 455 370 L 455 368 L 456 367 L 456 366 L 457 365 L 457 363 L 458 362 L 458 361 L 459 360 L 459 358 L 460 357 L 460 356 L 461 355 L 461 353 L 462 352 L 462 351 L 463 350 L 463 349 L 464 348 L 464 346 L 465 345 L 465 344 L 466 343 L 466 341 L 467 340 L 467 339 L 468 338 L 468 336 L 469 335 L 469 334 L 470 333 L 470 331 L 471 330 L 471 329 L 472 328 L 472 327 L 473 326 L 473 324 L 474 323 L 474 322 L 475 321 L 475 319 L 476 318 L 476 317 L 477 316 L 477 314 L 478 313 L 478 312 L 479 311 L 479 309 L 480 308 L 480 307 L 481 306 L 481 305 L 482 304 L 482 302 L 483 301 L 483 300 L 484 299 L 484 297 L 485 296 L 485 295 L 486 294 L 486 292 L 485 291 L 485 289 L 484 288 L 484 286 L 483 285 L 483 284 L 482 283 L 482 281 L 481 280 L 481 278 L 480 277 L 480 276 L 479 275 L 479 273 L 478 272 L 478 270 L 477 269 L 477 268 L 476 267 L 476 265 L 475 264 L 475 262 L 474 261 L 474 260 L 473 259 L 473 257 L 472 256 Z" fill="#111111"/>
<path d="M 157 289 L 157 291 L 161 295 L 161 296 L 178 313 L 178 314 L 191 327 L 194 327 L 194 325 L 195 324 L 195 322 L 196 321 L 196 320 L 197 319 L 197 317 L 198 316 L 198 314 L 199 313 L 199 311 L 200 310 L 200 309 L 201 308 L 201 306 L 202 305 L 202 303 L 203 302 L 203 300 L 204 299 L 204 298 L 205 297 L 205 295 L 206 294 L 206 292 L 207 291 L 207 289 Z" fill="#111111"/>
<path d="M 211 248 L 211 282 L 214 282 L 236 260 L 237 260 L 246 251 L 246 249 L 236 249 L 235 248 Z" fill="#111111"/>
<path d="M 206 252 L 200 258 L 200 259 L 184 275 L 184 276 L 176 284 L 176 286 L 208 286 L 208 252 Z" fill="#111111"/>
<path d="M 153 259 L 153 286 L 170 286 L 177 279 L 177 277 L 175 275 L 175 274 L 164 263 L 164 262 L 161 259 Z" fill="#111111"/>
<path d="M 206 301 L 206 303 L 205 304 L 205 306 L 204 307 L 204 308 L 203 309 L 203 311 L 202 312 L 202 314 L 201 315 L 201 316 L 200 317 L 200 319 L 199 320 L 199 322 L 198 323 L 198 325 L 197 326 L 197 327 L 196 328 L 196 330 L 195 331 L 195 333 L 194 334 L 194 336 L 193 337 L 193 338 L 192 339 L 192 343 L 193 343 L 194 344 L 195 344 L 196 345 L 197 345 L 198 346 L 199 346 L 200 347 L 201 347 L 203 349 L 204 349 L 205 350 L 208 350 L 208 301 Z" fill="#111111"/>
<path d="M 148 262 L 144 266 L 144 268 L 150 268 L 150 262 Z" fill="#111111"/>
<path d="M 246 255 L 243 258 L 243 260 L 245 260 L 247 258 L 248 258 L 248 255 Z" fill="#111111"/>
</svg>
